<?xml version="1.0" encoding="UTF-8"?>
<!DOCTYPE svg PUBLIC "-//W3C//DTD SVG 1.1//EN"
    "http://www.w3.org/Graphics/SVG/1.1/DTD/svg11.dtd" >
<svg contentScriptType="text/ecmascript" width="3495.0"
     xmlns:xlink="http://www.w3.org/1999/xlink" zoomAndPan="magnify"
     contentStyleType="text/css"
     viewBox="-784.000000 -736.000000 3495.000000 1454.000000" height="1454.0"
     preserveAspectRatio="xMidYMid meet" xmlns="http://www.w3.org/2000/svg"
     version="1.1">
    <g id="edges">
        <path fill="none" stroke-width="0.8895534"
              d="M 2424.041016,-409.126923 C 2493.011719,-374.326996 2544.267578,-218.671173 2509.467773,-149.700531"
              class="2 48" stroke-opacity="1.0" stroke="#5fc613"/>
        <path fill="none" stroke-width="0.85804224"
              d="M 2424.041016,-409.126923 C 2360.222656,-288.360077 2083.344727,-202.937408 1962.578003,-266.755768"
              class="2 52" stroke-opacity="1.0" stroke="#5fc613"/>
        <path fill="none" stroke-width="0.9646829"
              d="M -553.629883,-76.318398 C -437.078491,-218.484589 -49.002071,-256.906769 93.164116,-140.355362"
              class="9 14" stroke-opacity="1.0" stroke="#c686e9"/>
        <path fill="none" stroke-width="0.9139726"
              d="M -553.629883,-76.318398 C -527.927185,37.434345 -660.002319,246.617493 -773.755066,272.320160"
              class="9 24" stroke-opacity="1.0" stroke="#c686e9"/>
        <path fill="none" stroke-width="0.8742852"
              d="M -553.629883,-76.318398 C -428.910095,46.767479 -426.459229,418.475952 -549.545105,543.195740"
              class="9 27" stroke-opacity="1.0" stroke="#c686e9"/>
        <path fill="none" stroke-width="0.9689004"
              d="M -553.629883,-76.318398 C -473.124695,-81.723167 -344.259796,30.927441 -338.855011,111.432625"
              class="9 28" stroke-opacity="1.0" stroke="#c686e9"/>
        <path fill="none" stroke-width="0.88342"
              d="M -553.629883,-76.318398 C -573.749512,-242.502533 -354.652771,-521.958252 -188.468643,-542.077881"
              class="9 46" stroke-opacity="1.0" stroke="#c686e9"/>
        <path fill="none" stroke-width="0.9533785"
              d="M -553.629883,-76.318398 C -361.064972,-153.987442 44.285957,18.356354 121.955002,210.921249"
              class="9 53" stroke-opacity="1.0" stroke="#c686e9"/>
        <path fill="none" stroke-width="0.9537298"
              d="M -553.629883,-76.318398 C -582.943359,-150.753098 -515.261597,-306.375366 -440.826874,-335.688843"
              class="9 62" stroke-opacity="1.0" stroke="#c686e9"/>
        <path fill="none" stroke-width="0.97351444"
              d="M -553.629883,-76.318398 C -422.463135,-35.118179 -287.513367,223.432266 -328.713562,354.598999"
              class="9 63" stroke-opacity="1.0" stroke="#c686e9"/>
        <path fill="none" stroke-width="0.95952404"
              d="M -553.629883,-76.318398 C -504.845642,-185.944519 -267.230164,-277.207336 -157.604019,-228.423111"
              class="9 91" stroke-opacity="1.0" stroke="#c686e9"/>
        <path fill="none" stroke-width="0.9631615"
              d="M -553.629883,-76.318398 C -507.575317,-24.691200 -515.934265,121.831451 -567.561462,167.886017"
              class="9 92" stroke-opacity="1.0" stroke="#c686e9"/>
        <path fill="none" stroke-width="0.9182784"
              d="M 93.164116,-140.355362 C 57.117893,-3.593933 -202.093582,147.478851 -338.855011,111.432625"
              class="14 28" stroke-opacity="1.0" stroke="#c686e9"/>
        <path fill="none" stroke-width="0.87857944"
              d="M 93.164116,-140.355362 C -43.506954,-164.373322 -212.486603,-405.406799 -188.468643,-542.077881"
              class="14 46" stroke-opacity="1.0" stroke="#c686e9"/>
        <path fill="none" stroke-width="0.9231763"
              d="M 93.164116,-140.355362 C 169.177612,-75.858223 186.452148,134.907745 121.955002,210.921249"
              class="14 53" stroke-opacity="1.0" stroke="#c686e9"/>
        <path fill="none" stroke-width="0.8702694"
              d="M 93.164116,-140.355362 C 321.462433,-350.502228 979.130249,-323.275055 1189.277100,-94.976738"
              class="14 60" stroke-opacity="1.0" stroke="#92a67e"/>
        <path fill="none" stroke-width="0.9276524"
              d="M 93.164116,-140.355362 C -52.700775,-72.623863 -373.095398,-189.823944 -440.826874,-335.688843"
              class="14 62" stroke-opacity="1.0" stroke="#c686e9"/>
        <path fill="none" stroke-width="0.91558677"
              d="M 93.164116,-140.355362 C 107.779449,43.011055 -145.347137,339.983673 -328.713562,354.598999"
              class="14 63" stroke-opacity="1.0" stroke="#c686e9"/>
        <path fill="none" stroke-width="0.96637887"
              d="M 93.164116,-140.355362 C 25.396936,-107.815292 -125.063942,-160.655930 -157.604019,-228.423111"
              class="14 91" stroke-opacity="1.0" stroke="#c686e9"/>
        <path fill="none" stroke-width="0.9088648"
              d="M 93.164116,-140.355362 C 22.667271,53.438049 -373.768036,238.382858 -567.561462,167.886017"
              class="14 92" stroke-opacity="1.0" stroke="#c686e9"/>
        <path fill="none" stroke-width="0.873847"
              d="M -386.571808,-725.982849 C -310.170166,-728.822449 -191.308289,-618.479492 -188.468643,-542.077881"
              class="21 46" stroke-opacity="1.0" stroke="#c686e9"/>
        <path fill="none" stroke-width="0.85575277"
              d="M -386.571808,-725.982849 C -319.364014,-637.073059 -351.917053,-402.896637 -440.826874,-335.688843"
              class="21 62" stroke-opacity="1.0" stroke="#c686e9"/>
        <path fill="none" stroke-width="0.8695487"
              d="M -386.571808,-725.982849 C -241.266312,-672.264465 -103.885635,-373.728607 -157.604019,-228.423111"
              class="21 91" stroke-opacity="1.0" stroke="#c686e9"/>
        <path fill="none" stroke-width="0.8831643"
              d="M 1330.091797,201.656769 C 1432.441406,48.111389 1816.283691,-28.682426 1969.828979,73.667084"
              class="23 36" stroke-opacity="1.0" stroke="#5fc613"/>
        <path fill="none" stroke-width="0.86903495"
              d="M 1330.091797,201.656769 C 1090.317261,445.137024 365.435303,450.695740 121.955002,210.921249"
              class="23 53" stroke-opacity="1.0" stroke="#92a67e"/>
        <path fill="none" stroke-width="0.90971255"
              d="M 1330.091797,201.656769 C 1242.602173,170.492996 1158.113403,-7.487093 1189.277100,-94.976738"
              class="23 60" stroke-opacity="1.0" stroke="#5fc613"/>
        <path fill="none" stroke-width="0.89260435"
              d="M 1330.091797,201.656769 C 1364.506836,76.906715 1603.254517,-58.595818 1728.004517,-24.180786"
              class="23 86" stroke-opacity="1.0" stroke="#5fc613"/>
        <path fill="none" stroke-width="0.9263122"
              d="M -773.755066,272.320160 C -674.737976,281.653259 -540.211975,444.178650 -549.545105,543.195740"
              class="24 27" stroke-opacity="1.0" stroke="#c686e9"/>
        <path fill="none" stroke-width="0.9703524"
              d="M -773.755066,272.320160 C -718.952515,153.162643 -458.012512,56.630127 -338.855011,111.432625"
              class="24 28" stroke-opacity="1.0" stroke="#c686e9"/>
        <path fill="none" stroke-width="0.9475198"
              d="M -773.755066,272.320160 C -668.291016,199.767639 -401.266083,249.134918 -328.713562,354.598999"
              class="24 63" stroke-opacity="1.0" stroke="#c686e9"/>
        <path fill="none" stroke-width="0.8545922"
              d="M -773.755066,272.320160 C -750.673523,48.941299 -380.982880,-251.504654 -157.604019,-228.423111"
              class="24 91" stroke-opacity="1.0" stroke="#c686e9"/>
        <path fill="none" stroke-width="0.9812951"
              d="M -773.755066,272.320160 C -753.403198,210.194611 -629.687012,147.534119 -567.561462,167.886017"
              class="24 92" stroke-opacity="1.0" stroke="#c686e9"/>
        <path fill="none" stroke-width="0.9166809"
              d="M -549.545105,543.195740 C -593.759705,414.705078 -467.345673,155.647217 -338.855011,111.432625"
              class="27 28" stroke-opacity="1.0" stroke="#c686e9"/>
        <path fill="none" stroke-width="0.88528115"
              d="M -549.545105,543.195740 C -481.699982,342.440826 -78.799911,143.076141 121.955002,210.921249"
              class="27 53" stroke-opacity="1.0" stroke="#c686e9"/>
        <path fill="none" stroke-width="0.927526"
              d="M -549.545105,543.195740 C -543.098145,461.310059 -410.599243,348.152039 -328.713562,354.598999"
              class="27 63" stroke-opacity="1.0" stroke="#c686e9"/>
        <path fill="none" stroke-width="0.9276138"
              d="M -549.545105,543.195740 C -628.210327,471.737061 -639.020142,246.551239 -567.561462,167.886017"
              class="27 92" stroke-opacity="1.0" stroke="#c686e9"/>
        <path fill="none" stroke-width="0.9520317"
              d="M -549.545105,543.195740 C -451.531952,510.880951 -256.040070,609.428467 -223.725281,707.441589"
              class="27 100" stroke-opacity="1.0" stroke="#c686e9"/>
        <path fill="none" stroke-width="0.9160356"
              d="M -338.855011,111.432625 C -226.795288,39.168350 49.690727,98.861526 121.955002,210.921249"
              class="28 53" stroke-opacity="1.0" stroke="#c686e9"/>
        <path fill="none" stroke-width="0.8876006"
              d="M -338.855011,111.432625 C -448.673676,42.402702 -509.856781,-225.870178 -440.826874,-335.688843"
              class="28 62" stroke-opacity="1.0" stroke="#c686e9"/>
        <path fill="none" stroke-width="0.98440117"
              d="M -338.855011,111.432625 C -288.193451,158.037613 -282.108582,303.937439 -328.713562,354.598999"
              class="28 63" stroke-opacity="1.0" stroke="#c686e9"/>
        <path fill="none" stroke-width="0.9115193"
              d="M -338.855011,111.432625 C -370.575958,7.211273 -261.825378,-196.702164 -157.604019,-228.423111"
              class="28 91" stroke-opacity="1.0" stroke="#c686e9"/>
        <path fill="none" stroke-width="0.9875462"
              d="M -338.855011,111.432625 C -373.305634,168.464600 -510.529510,202.336624 -567.561462,167.886017"
              class="28 92" stroke-opacity="1.0" stroke="#c686e9"/>
        <path fill="none" stroke-width="0.8762029"
              d="M 1969.828979,73.667084 C 2033.083252,-78.934196 2356.866455,-212.954773 2509.467773,-149.700531"
              class="36 48" stroke-opacity="1.0" stroke="#5fc613"/>
        <path fill="none" stroke-width="0.8747204"
              d="M 1969.828979,73.667084 C 1900.294189,7.032707 1895.943604,-197.221008 1962.578003,-266.755768"
              class="36 52" stroke-opacity="1.0" stroke="#5fc613"/>
        <path fill="none" stroke-width="0.9049446"
              d="M 1969.828979,73.667084 C 1779.989868,196.048706 1311.658691,94.862411 1189.277100,-94.976738"
              class="36 60" stroke-opacity="1.0" stroke="#5fc613"/>
        <path fill="none" stroke-width="0.93305016"
              d="M 1969.828979,73.667084 C 2003.477539,2.353680 2160.920410,-54.143570 2232.233887,-20.495007"
              class="36 67" stroke-opacity="1.0" stroke="#5fc613"/>
        <path fill="none" stroke-width="0.9591157"
              d="M 1969.828979,73.667084 C 1901.894531,102.462402 1756.799805,43.753677 1728.004517,-24.180786"
              class="36 86" stroke-opacity="1.0" stroke="#5fc613"/>
        <path fill="none" stroke-width="0.86666596"
              d="M 1969.828979,73.667084 C 2087.669434,-34.379463 2426.500000,-19.688660 2534.546387,98.151756"
              class="36 99" stroke-opacity="1.0" stroke="#5fc613"/>
        <path fill="none" stroke-width="0.86068267"
              d="M -188.468643,-542.077881 C 24.215927,-453.562744 210.470108,-1.763321 121.955002,210.921249"
              class="46 53" stroke-opacity="1.0" stroke="#c686e9"/>
        <path fill="none" stroke-width="0.9406542"
              d="M -188.468643,-542.077881 C -197.662476,-450.328430 -349.077423,-326.494995 -440.826874,-335.688843"
              class="46 62" stroke-opacity="1.0" stroke="#c686e9"/>
        <path fill="none" stroke-width="0.89215505"
              d="M -188.468643,-542.077881 C -119.564758,-485.519836 -101.045990,-297.326965 -157.604019,-228.423111"
              class="46 91" stroke-opacity="1.0" stroke="#c686e9"/>
        <path fill="none" stroke-width="0.914208"
              d="M 2509.467773,-149.700531 C 2479.862061,-68.412643 2313.521729,9.110668 2232.233887,-20.495007"
              class="48 67" stroke-opacity="1.0" stroke="#5fc613"/>
        <path fill="none" stroke-width="0.9205175"
              d="M 2509.467773,-149.700531 C 2564.053955,-105.145790 2579.101318,43.565571 2534.546387,98.151756"
              class="48 99" stroke-opacity="1.0" stroke="#5fc613"/>
        <path fill="none" stroke-width="0.8890311"
              d="M 1962.578003,-266.755768 C 1842.273682,-77.739777 1378.293091,25.327637 1189.277100,-94.976738"
              class="52 60" stroke-opacity="1.0" stroke="#5fc613"/>
        <path fill="none" stroke-width="0.8606635"
              d="M 1962.578003,-266.755768 C 2065.761230,-271.434784 2227.554932,-123.678345 2232.233887,-20.495007"
              class="52 67" stroke-opacity="1.0" stroke="#5fc613"/>
        <path fill="none" stroke-width="0.8678368"
              d="M 1962.578003,-266.755768 C 1964.178345,-171.326080 1823.434204,-25.781090 1728.004517,-24.180786"
              class="52 86" stroke-opacity="1.0" stroke="#5fc613"/>
        <path fill="none" stroke-width="0.86270803"
              d="M 121.955002,210.921249 C 274.239838,-63.722778 914.633057,-247.261566 1189.277100,-94.976738"
              class="53 60" stroke-opacity="1.0" stroke="#92a67e"/>
        <path fill="none" stroke-width="0.91267"
              d="M 121.955002,210.921249 C -99.923393,214.155609 -437.592529,-113.810448 -440.826874,-335.688843"
              class="53 62" stroke-opacity="1.0" stroke="#c686e9"/>
        <path fill="none" stroke-width="0.94515836"
              d="M 121.955002,210.921249 C 60.556839,329.790527 -209.844299,415.997192 -328.713562,354.598999"
              class="53 63" stroke-opacity="1.0" stroke="#c686e9"/>
        <path fill="none" stroke-width="0.94064736"
              d="M 121.955002,210.921249 C -21.825676,178.964188 -189.561096,-84.642426 -157.604019,-228.423111"
              class="53 91" stroke-opacity="1.0" stroke="#c686e9"/>
        <path fill="none" stroke-width="0.90821195"
              d="M 121.955002,210.921249 C -24.555336,340.217499 -438.265228,314.396362 -567.561462,167.886017"
              class="53 92" stroke-opacity="1.0" stroke="#c686e9"/>
        <path fill="none" stroke-width="0.9063656"
              d="M 121.955002,210.921249 C 152.123016,379.361389 -55.285149,677.273560 -223.725281,707.441589"
              class="53 100" stroke-opacity="1.0" stroke="#c686e9"/>
        <path fill="none" stroke-width="0.90773517"
              d="M 1189.277100,-94.976738 C 1412.764771,-288.671753 2038.538940,-243.982727 2232.233887,-20.495007"
              class="60 67" stroke-opacity="1.0" stroke="#5fc613"/>
        <path fill="none" stroke-width="0.93250996"
              d="M 1189.277100,-94.976738 C 1311.181763,-188.563049 1634.418213,-146.085464 1728.004517,-24.180786"
              class="60 86" stroke-opacity="1.0" stroke="#5fc613"/>
        <path fill="none" stroke-width="0.86763394"
              d="M 1189.277100,-94.976738 C 893.211609,147.710236 85.082954,67.642426 -157.604019,-228.423111"
              class="60 91" stroke-opacity="1.0" stroke="#92a67e"/>
        <path fill="none" stroke-width="0.9094029"
              d="M -440.826874,-335.688843 C -280.346619,-220.053940 -213.078659,194.118759 -328.713562,354.598999"
              class="62 63" stroke-opacity="1.0" stroke="#c686e9"/>
        <path fill="none" stroke-width="0.9567017"
              d="M -440.826874,-335.688843 C -362.729156,-370.880249 -192.795456,-306.520813 -157.604019,-228.423111"
              class="62 91" stroke-opacity="1.0" stroke="#c686e9"/>
        <path fill="none" stroke-width="0.8991508"
              d="M -440.826874,-335.688843 C -365.458832,-209.626953 -441.499573,92.517960 -567.561462,167.886017"
              class="62 92" stroke-opacity="1.0" stroke="#c686e9"/>
        <path fill="none" stroke-width="0.92226595"
              d="M -328.713562,354.598999 C -411.096069,203.772675 -308.430359,-146.040604 -157.604019,-228.423111"
              class="63 91" stroke-opacity="1.0" stroke="#c686e9"/>
        <path fill="none" stroke-width="0.98410875"
              d="M -328.713562,354.598999 C -413.825745,365.026001 -557.134460,252.998184 -567.561462,167.886017"
              class="63 92" stroke-opacity="1.0" stroke="#c686e9"/>
        <path fill="none" stroke-width="0.8737154"
              d="M -328.713562,354.598999 C -237.147400,404.169861 -174.154419,615.875366 -223.725281,707.441589"
              class="63 100" stroke-opacity="1.0" stroke="#c686e9"/>
        <path fill="none" stroke-width="0.9387503"
              d="M 2232.233887,-20.495007 C 2130.650879,79.613708 1828.113159,77.402237 1728.004517,-24.180786"
              class="67 86" stroke-opacity="1.0" stroke="#5fc613"/>
        <path fill="none" stroke-width="0.8991462"
              d="M 2232.233887,-20.495007 C 2356.400146,-83.756943 2637.541992,7.599289 2700.803955,131.765381"
              class="67 98" stroke-opacity="1.0" stroke="#5fc613"/>
        <path fill="none" stroke-width="0.9349034"
              d="M 2232.233887,-20.495007 C 2316.425537,-57.228157 2497.813232,13.959896 2534.546387,98.151756"
              class="67 99" stroke-opacity="1.0" stroke="#5fc613"/>
        <path fill="none" stroke-width="0.91020083"
              d="M -157.604019,-228.423111 C -160.333679,-67.169792 -406.308136,170.615677 -567.561462,167.886017"
              class="91 92" stroke-opacity="1.0" stroke="#c686e9"/>
        <path fill="none" stroke-width="0.91635317"
              d="M 2700.803955,131.765381 C 2660.829834,158.294174 2561.075195,138.125992 2534.546387,98.151756"
              class="98 99" stroke-opacity="1.0" stroke="#5fc613"/>
    </g>
    <g id="nodes">
        <circle fill-opacity="1.0" fill="#5fc613" r="10.275353" cx="2424.041"
                class="2" cy="-409.12692" stroke="#000000" stroke-opacity="1.0"
                stroke-width="1.0"/>
        <circle fill-opacity="1.0" fill="#c686e9" r="12.566536" cx="-553.6299"
                class="9" cy="-76.3184" stroke="#000000" stroke-opacity="1.0"
                stroke-width="1.0"/>
        <circle fill-opacity="1.0" fill="#c686e9" r="24.066626" cx="93.164116"
                class="14" cy="-140.35536" stroke="#000000" stroke-opacity="1.0"
                stroke-width="1.0"/>
        <circle fill-opacity="1.0" fill="#c686e9" r="10.0" cx="-386.5718"
                class="21" cy="-725.98285" stroke="#000000" stroke-opacity="1.0"
                stroke-width="1.0"/>
        <circle fill-opacity="1.0" fill="#5fc613" r="18.024586" cx="1330.0918"
                class="23" cy="201.65677" stroke="#000000" stroke-opacity="1.0"
                stroke-width="1.0"/>
        <circle fill-opacity="1.0" fill="#c686e9" r="10.20122" cx="-773.75507"
                class="24" cy="272.32016" stroke="#000000" stroke-opacity="1.0"
                stroke-width="1.0"/>
        <circle fill-opacity="1.0" fill="#c686e9" r="11.494776" cx="-549.5451"
                class="27" cy="543.19574" stroke="#000000" stroke-opacity="1.0"
                stroke-width="1.0"/>
        <circle fill-opacity="1.0" fill="#c686e9" r="11.181296" cx="-338.855"
                class="28" cy="111.432625" stroke="#000000" stroke-opacity="1.0"
                stroke-width="1.0"/>
        <circle fill-opacity="1.0" fill="#5fc613" r="27.642286" cx="1969.829"
                class="36" cy="73.66708" stroke="#000000" stroke-opacity="1.0"
                stroke-width="1.0"/>
        <circle fill-opacity="1.0" fill="#c686e9" r="11.324874" cx="-188.46864"
                class="46" cy="-542.0779" stroke="#000000" stroke-opacity="1.0"
                stroke-width="1.0"/>
        <circle fill-opacity="1.0" fill="#5fc613" r="12.409342" cx="2509.4678"
                class="48" cy="-149.70053" stroke="#000000" stroke-opacity="1.0"
                stroke-width="1.0"/>
        <circle fill-opacity="1.0" fill="#5fc613" r="24.111862" cx="1962.578"
                class="52" cy="-266.75577" stroke="#000000" stroke-opacity="1.0"
                stroke-width="1.0"/>
        <circle fill-opacity="1.0" fill="#c686e9" r="56.05074" cx="121.955"
                class="53" cy="210.92125" stroke="#000000" stroke-opacity="1.0"
                stroke-width="1.0"/>
        <circle fill-opacity="1.0" fill="#5fc613" r="90.0" cx="1189.2771"
                class="60" cy="-94.97674" stroke="#000000" stroke-opacity="1.0"
                stroke-width="1.0"/>
        <circle fill-opacity="1.0" fill="#c686e9" r="13.4154415" cx="-440.82687"
                class="62" cy="-335.68884" stroke="#000000" stroke-opacity="1.0"
                stroke-width="1.0"/>
        <circle fill-opacity="1.0" fill="#c686e9" r="13.989902" cx="-328.71356"
                class="63" cy="354.599" stroke="#000000" stroke-opacity="1.0"
                stroke-width="1.0"/>
        <circle fill-opacity="1.0" fill="#5fc613" r="36.758453" cx="2232.234"
                class="67" cy="-20.495007" stroke="#000000" stroke-opacity="1.0"
                stroke-width="1.0"/>
        <circle fill-opacity="1.0" fill="#5fc613" r="10.963737" cx="1728.0045"
                class="86" cy="-24.180786" stroke="#000000" stroke-opacity="1.0"
                stroke-width="1.0"/>
        <circle fill-opacity="1.0" fill="#c686e9" r="44.068783" cx="-157.60402"
                class="91" cy="-228.42311" stroke="#000000" stroke-opacity="1.0"
                stroke-width="1.0"/>
        <circle fill-opacity="1.0" fill="#c686e9" r="11.181296" cx="-567.56146"
                class="92" cy="167.88602" stroke="#000000" stroke-opacity="1.0"
                stroke-width="1.0"/>
        <circle fill-opacity="1.0" fill="#5fc613" r="10.0" cx="2700.804"
                class="98" cy="131.76538" stroke="#000000" stroke-opacity="1.0"
                stroke-width="1.0"/>
        <circle fill-opacity="1.0" fill="#5fc613" r="11.307929" cx="2534.5464"
                class="99" cy="98.15176" stroke="#000000" stroke-opacity="1.0"
                stroke-width="1.0"/>
        <circle fill-opacity="1.0" fill="#c686e9" r="10.0" cx="-223.72528"
                class="100" cy="707.4416" stroke="#000000" stroke-opacity="1.0"
                stroke-width="1.0"/>
    </g>
    <g id="node-labels">
        <text font-size="25" x="2424.041" y="-403.26144" fill="#000000"
              style="text-anchor: middle; dominant-baseline: central;"
              font-family="Arial" class="2">
            Jeffrey Dean Morgan
        </text>
        <text font-size="30" x="-553.6299" y="-69.371376" fill="#000000"
              style="text-anchor: middle; dominant-baseline: central;"
              font-family="Arial" class="9">
            Khary Payton
        </text>
        <text font-size="58" x="93.164116" y="-126.92445" fill="#000000"
              style="text-anchor: middle; dominant-baseline: central;"
              font-family="Arial" class="14">
            Tom Hardy
        </text>
        <text font-size="24" x="-386.5718" y="-720.42523" fill="#000000"
              style="text-anchor: middle; dominant-baseline: central;"
              font-family="Arial" class="21">
            Milo Ventimiglia
        </text>
        <text font-size="43" x="1330.0918" y="209.61429" fill="#000000"
              style="text-anchor: middle; dominant-baseline: central;"
              font-family="Arial" class="23">
            Dan Stevens
        </text>
        <text font-size="24" x="-773.75507" y="277.87778" fill="#000000"
              style="text-anchor: middle; dominant-baseline: central;"
              font-family="Arial" class="24">
            Johnny Depp
        </text>
        <text font-size="28" x="-549.5451" y="548.3774" fill="#000000"
              style="text-anchor: middle; dominant-baseline: central;"
              font-family="Arial" class="27">
            Mel Gibson
        </text>
        <text font-size="27" x="-338.855" y="117.68824" fill="#000000"
              style="text-anchor: middle; dominant-baseline: central;"
              font-family="Arial" class="28">
            Leonardo DiCaprio
        </text>
        <text font-size="66" x="1969.829" y="85.88095" fill="#000000"
              style="text-anchor: middle; dominant-baseline: central;"
              font-family="Arial" class="36">
            Tom Cruise
        </text>
        <text font-size="27" x="-188.46864" y="-537.1637" fill="#000000"
              style="text-anchor: middle; dominant-baseline: central;"
              font-family="Arial" class="46">
            Jamie Dornan
        </text>
        <text font-size="30" x="2509.4678" y="-144.24399" fill="#000000"
              style="text-anchor: middle; dominant-baseline: central;"
              font-family="Arial" class="48">
            Luke Evans
        </text>
        <text font-size="58" x="1962.578" y="-256.02237" fill="#000000"
              style="text-anchor: middle; dominant-baseline: central;"
              font-family="Arial" class="52">
            Steven Yeun
        </text>
        <text font-size="135" x="121.955" y="242.59483" fill="#000000"
              style="text-anchor: middle; dominant-baseline: central;"
              font-family="Arial" class="53">
            Matthew McConaughey
        </text>
        <text font-size="216" x="1189.2771" y="-55.68963" fill="#000000"
              style="text-anchor: middle; dominant-baseline: central;"
              font-family="Arial" class="60">
            Norman Reedus
        </text>
        <text font-size="32" x="-440.82687" y="-328.2787" fill="#000000"
              style="text-anchor: middle; dominant-baseline: central;"
              font-family="Arial" class="62">
            Eddie Redmayne
        </text>
        <text font-size="34" x="-328.71356" y="360.78308" fill="#000000"
              style="text-anchor: middle; dominant-baseline: central;"
              font-family="Arial" class="63">
            Tom Hanks
        </text>
        <text font-size="88" x="2232.234" y="0.15147972" fill="#000000"
              style="text-anchor: middle; dominant-baseline: central;"
              font-family="Arial" class="67">
            Jake Gyllenhaal
        </text>
        <text font-size="26" x="1728.0045" y="-18.160034" fill="#000000"
              style="text-anchor: middle; dominant-baseline: central;"
              font-family="Arial" class="86">
            Ryan Reynolds
        </text>
        <text font-size="106" x="-157.60402" y="-209.14333" fill="#000000"
              style="text-anchor: middle; dominant-baseline: central;"
              font-family="Arial" class="91">
            Brad Pitt
        </text>
        <text font-size="27" x="-567.56146" y="174.13834" fill="#000000"
              style="text-anchor: middle; dominant-baseline: central;"
              font-family="Arial" class="92">
            Katy Perry
        </text>
        <text font-size="24" x="2700.804" y="136.13062" fill="#000000"
              style="text-anchor: middle; dominant-baseline: central;"
              font-family="Arial" class="98">
            Travis Fimmel
        </text>
        <text font-size="27" x="2534.5464" y="103.06594" fill="#000000"
              style="text-anchor: middle; dominant-baseline: central;"
              font-family="Arial" class="99">
            Jared Leto
        </text>
        <text font-size="24" x="-223.72528" y="711.8068" fill="#000000"
              style="text-anchor: middle; dominant-baseline: central;"
              font-family="Arial" class="100">
            Evan Peters
        </text>
    </g>
</svg>